<svg width="100" height="100" viewBox="0 0 100 100" fill="none" xmlns="http://www.w3.org/2000/svg">
<rect width="100" height="100" rx="10" fill="black"/>
<path d="M10 38H25.5092V42.375H14.4797V47.2813H24.2425V51.6563H14.4797V56.625H25.9417V61H10V38Z" fill="white"/>
<path d="M30.5764 61V38H37.3732C39.6594 38 41.6058 38.3438 43.2123 39.0313C44.8189 39.7188 46.1061 40.6354 47.0742 41.7813C48.0628 42.9271 48.7837 44.2083 49.2368 45.625C49.6899 47.0417 49.9165 48.4688 49.9165 49.9063C49.9165 51.6146 49.6075 53.1563 48.9896 54.5313C48.3924 55.8854 47.5685 57.0521 46.5181 58.0313C45.4676 58.9896 44.2525 59.7292 42.8725 60.25C41.4925 60.75 40.0302 61 38.4854 61H30.5764ZM35.0561 56.625H37.7131C38.8459 56.625 39.8757 56.4792 40.8025 56.1875C41.7294 55.875 42.5223 55.4271 43.1814 54.8438C43.8611 54.2604 44.376 53.5312 44.7262 52.6562C45.0969 51.7604 45.2823 50.7396 45.2823 49.5938C45.2823 48.0938 45.0351 46.875 44.5408 45.9375C44.0671 44.9792 43.4698 44.2396 42.7489 43.7188C42.0486 43.1979 41.3278 42.8438 40.5863 42.6563C39.8448 42.4479 39.2166 42.3438 38.7017 42.3438H35.0561V56.625Z" fill="white"/>
<path d="M52.8665 38H68.1902V42.375H62.6601V61H58.1804V42.375H52.8665V38Z" fill="white"/>
<path d="M79.4031 38C80.8243 38 82.091 38.1875 83.2032 38.5625C84.3154 38.9167 85.2422 39.4375 85.9837 40.125C86.7458 40.7917 87.3225 41.6042 87.7138 42.5625C88.1051 43.5 88.3008 44.5625 88.3008 45.75C88.3008 46.6875 88.1566 47.625 87.8683 48.5625C87.6005 49.5 87.1474 50.3542 86.5089 51.125C85.891 51.8958 85.0671 52.5208 84.0373 53C83.0075 53.4583 81.7305 53.6875 80.2064 53.6875H76.9933V61H72.5136V38H79.4031ZM80.1755 49.3125C80.8552 49.3125 81.4216 49.1979 81.8747 48.9688C82.3278 48.7396 82.678 48.4479 82.9251 48.0938C83.1929 47.7396 83.3782 47.375 83.4812 47C83.6048 46.6042 83.6666 46.2396 83.6666 45.9063C83.6666 45.6563 83.6254 45.3438 83.543 44.9688C83.4812 44.5729 83.337 44.1771 83.1105 43.7813C82.8839 43.3854 82.5338 43.0521 82.0601 42.7813C81.6069 42.5104 80.989 42.375 80.2064 42.375H76.9933V49.3125H80.1755ZM84.3772 52.125L90 61H84.7788L79.0324 52.25L84.3772 52.125Z" fill="white"/>
</svg>
